<?xml version="1.0" standalone="no"?>
<!DOCTYPE svg PUBLIC "-//W3C//DTD SVG 20010904//EN"
 "http://www.w3.org/TR/2001/REC-SVG-20010904/DTD/svg10.dtd">
<svg version="1.0" xmlns="http://www.w3.org/2000/svg"
 width="512.000000pt" height="512.000000pt" viewBox="0 0 512.000000 512.000000"
 preserveAspectRatio="xMidYMid meet">
<metadata>
Created by potrace 1.11, written by Peter Selinger 2001-2013
</metadata>
<g transform="translate(0.000000,512.000000) scale(0.100000,-0.100000)"
fill="#000000" stroke="none">
<path d="M1047 3703 c-12 -20 -687 -2242 -687 -2261 l0 -22 263 0 262 0 69
253 c39 138 76 273 84 300 l14 47 327 0 328 0 88 -300 89 -300 278 0 c153 0
278 3 278 8 0 4 -159 518 -353 1142 l-352 1135 -342 3 c-188 1 -344 -1 -346
-5z m368 -538 c29 -118 171 -612 209 -732 l7 -23 -250 0 c-138 0 -251 3 -251
8 0 4 35 133 78 287 43 154 96 357 118 452 21 95 42 169 45 165 3 -4 23 -74
44 -157z"/>
<path d="M2750 2565 l0 -1145 236 0 237 0 -7 763 c-3 419 -9 803 -12 852 -4
59 -3 87 4 80 5 -5 33 -64 62 -130 88 -202 283 -577 558 -1071 144 -259 262
-476 262 -483 0 -8 78 -11 280 -11 l280 0 0 1145 0 1145 -241 0 -241 0 5 -652
c4 -575 11 -772 32 -923 9 -61 -6 -35 -76 130 -102 240 -236 498 -514 987
l-260 458 -302 0 -303 0 0 -1145z"/>
</g>
</svg>
