<?xml version="1.0" standalone="no"?>
<!DOCTYPE svg PUBLIC "-//W3C//DTD SVG 20010904//EN"
 "http://www.w3.org/TR/2001/REC-SVG-20010904/DTD/svg10.dtd">
<svg version="1.0" xmlns="http://www.w3.org/2000/svg"
 width="260.000000pt" height="260.000000pt" viewBox="0 0 260.000000 260.000000"
 preserveAspectRatio="xMidYMid meet">
<metadata>
Created by potrace 1.11, written by Peter Selinger 2001-2013
</metadata>
<g transform="translate(0.000000,260.000000) scale(0.100000,-0.100000)"
fill="#000000" stroke="none">
<path d="M450 2317 c0 -13 5 -28 12 -35 14 -14 17 -111 5 -162 -8 -34 -4 -41
61 -125 86 -112 114 -162 142 -250 12 -38 25 -79 30 -90 5 -11 18 -41 29 -67
11 -27 24 -48 28 -48 12 0 78 70 92 97 17 33 13 132 -8 217 -19 76 -88 236
-101 236 -4 0 -19 18 -34 41 -21 31 -26 48 -21 70 4 15 3 53 0 84 l-7 55 -114
0 c-112 0 -114 0 -114 -23z"/>
<path d="M1905 2330 c-3 -5 -3 -31 1 -58 8 -59 -6 -90 -76 -167 -57 -63 -84
-118 -76 -157 4 -18 0 -30 -10 -36 -18 -10 -23 -33 -31 -140 l-6 -83 -46 -38
c-25 -21 -73 -55 -106 -76 -100 -62 -162 -114 -175 -146 -10 -23 -10 -42 -1
-86 6 -31 11 -62 11 -69 0 -7 -40 -53 -88 -101 -59 -59 -92 -100 -98 -123 -11
-39 2 -117 36 -222 39 -119 22 -272 -51 -448 -22 -55 -38 -104 -34 -110 3 -5
28 -10 56 -10 46 0 51 2 80 43 40 55 120 214 149 297 30 89 30 165 -3 268 -33
100 -35 174 -7 219 11 18 45 52 76 75 108 81 104 74 104 187 0 98 0 99 30 125
17 14 66 44 109 66 89 46 155 99 176 141 17 33 19 118 4 172 -9 32 -8 42 5 56
9 10 16 29 16 43 0 31 37 87 100 153 65 67 94 124 85 167 -15 67 -16 68 -125
68 -54 0 -102 -4 -105 -10z"/>
<path d="M1205 2001 c-94 -26 -114 -47 -95 -99 31 -85 29 -172 -5 -246 -43
-97 -53 -126 -44 -132 16 -9 77 16 140 57 92 62 127 135 144 305 5 55 3 65
-17 88 -26 28 -76 39 -123 27z"/>
</g>
</svg>
